# xmcd
#
# Track frame offsets: 
#        150
#        24651
#        59442
#        72294
#        108667
#        148009
#        165691
#        194713
#        207671
#        243247
#        252949
#
# Disc length: 3629 seconds
#
# Revision: 1
# Processed by: cddbd v1.5PL3 Copyright (c) Steve Scherf et al.
# Submitted via: ExactAudioCopy v0.95a3
#
DISCID=ad0e2b0b
DTITLE=Bill Bruford's Earthworks - Random Acts Of Happiness
DYEAR=2004
DGENRE=Jazz
TTITLE0=My Heart Declares A Holiday
TTITLE1=White Knuckle Wedding
TTITLE2=Turn And Return
TTITLE3=Tramontana
TTITLE4=Bajo Del Sol
TTITLE5=Seems Like A Lifetime Ago (Part 1)
TTITLE6=Modern Folk
TTITLE7=With Friends Like These...
TTITLE8=Speaking With Wooden Tongues
TTITLE9=One Of A Kind (Part 1)
TTITLE10=One Of A Kind (Part 2)
EXTD=YEAR: 2003
EXTT0=
EXTT1=
EXTT2=
EXTT3=
EXTT4=
EXTT5=
EXTT6=
EXTT7=
EXTT8=
EXTT9=
EXTT10=
PLAYORDER=
